# xmcd CD database file
#
# Track frame offsets:
#	150
#	44661
#	118900
#	139811
#
# Disc length: 2514 seconds
#
# Revision: 0
# Processed by: cddbd v1.5.1PL0 Copyright (c) Steve Scherf et al.
# Submitted via: CDex 1.51
#
DISCID=3b09d004
DTITLE=John Abercrombie - In Hamburg [CD2]
DYEAR=1986
DGENRE=Jazz
TTITLE0=Night (Abercrombie
TTITLE1=Four On One
TTITLE2=Stinger Tune (Abercrombie)
TTITLE3=Bessie's Blues (Coltrane)
EXTD=YEAR: 1986
EXTT0=
EXTT1=
EXTT2=
EXTT3=
PLAYORDER=
